<?xml version="1.0" encoding="UTF-8" standalone="no"?>
<!-- Created with Inkscape (http://www.inkscape.org/) -->

<svg
   xmlns:dc="http://purl.org/dc/elements/1.1/"
   xmlns:cc="http://creativecommons.org/ns#"
   xmlns:rdf="http://www.w3.org/1999/02/22-rdf-syntax-ns#"
   xmlns:svg="http://www.w3.org/2000/svg"
   xmlns="http://www.w3.org/2000/svg"
   xmlns:sodipodi="http://sodipodi.sourceforge.net/DTD/sodipodi-0.dtd"
   xmlns:inkscape="http://www.inkscape.org/namespaces/inkscape"
   id="svg2997"
   version="1.1"
   inkscape:version="0.48.2 r9819"
   width="320"
   height="250"
   sodipodi:docname="tail">
  <metadata
     id="metadata3003">
    <rdf:RDF>
      <cc:Work
         rdf:about="">
        <dc:format>image/svg+xml</dc:format>
        <dc:type
           rdf:resource="http://purl.org/dc/dcmitype/StillImage" />
        <dc:title></dc:title>
      </cc:Work>
    </rdf:RDF>
  </metadata>
  <defs
     id="defs3001" />
  <sodipodi:namedview
     pagecolor="#ffffff"
     bordercolor="#666666"
     borderopacity="1"
     objecttolerance="10"
     gridtolerance="10"
     guidetolerance="10"
     inkscape:pageopacity="0"
     inkscape:pageshadow="2"
     inkscape:window-width="1920"
     inkscape:window-height="1058"
     id="namedview2999"
     showgrid="false"
     inkscape:zoom="1.3768746"
     inkscape:cx="90.871013"
     inkscape:cy="185.40077"
     inkscape:window-x="1432"
     inkscape:window-y="-8"
     inkscape:window-maximized="1"
     inkscape:current-layer="svg2997" />
  <path
     style="fill:none;stroke:#000000;stroke-width:1px;stroke-linecap:butt;stroke-linejoin:miter;stroke-opacity:1"
     d="M 9.2440678,69.740678 C 9.1474869,58.583844 23.997949,17.122299 138.27585,8.3703387 c 0,0 -37.80355,21.5891373 -43.010595,75.1080513 C 94.144829,94.99432 76.833572,101.72138 62.140678,101.70975 46.32966,101.69723 9.3343332,80.167955 9.2440678,69.740678 z"
     id="path3007"
     inkscape:connector-curvature="0"
     sodipodi:nodetypes="scsss" />
  <path
     style="fill:none;stroke:#000000;stroke-width:1px;stroke-linecap:butt;stroke-linejoin:miter;stroke-opacity:1"
     d="m 142.25593,7.3432201 c 6.0015,-3.2602483 162.87526,-0.5464112 169.98814,63.9381359 1.52968,13.867848 -11.56306,34.445154 -24.90763,34.408474 -18.16526,-0.0499 -51.61271,-19.001695 -51.61271,-19.001695 0,0 14.52863,56.239185 11.04152,94.751695 -5.87334,2.26685 -27.42428,31.40614 -35.69237,31.5839 -9.54609,0.20523 -6.05232,-1.97321 -15.92034,-1.79746 -19.29136,0.34357 -19.50828,33.20189 -32.61101,33.12458 -17.5296,-0.10343 -20.51192,-28.47762 -31.84068,-41.85509 C 116.87486,186.16946 102.53579,176.33114 83.059096,176.99937 82.962228,79.328651 122.00529,36.055052 142.25593,7.3432201 z"
     id="path3009"
     inkscape:connector-curvature="0"
     sodipodi:nodetypes="cssccsssscc" />
</svg>
